<?xml version="1.0" standalone="no"?>
<!DOCTYPE svg PUBLIC "-//W3C//DTD SVG 20010904//EN"
 "http://www.w3.org/TR/2001/REC-SVG-20010904/DTD/svg10.dtd">
<svg version="1.0" xmlns="http://www.w3.org/2000/svg"
 width="507.000000pt" height="492.000000pt" viewBox="0 0 507.000000 492.000000"
 preserveAspectRatio="xMidYMid meet">

<g transform="translate(0.000000,492.000000) scale(0.100000,-0.100000)"
fill="#000000" stroke="none">
<path d="M3157 4853 c-2 -5 -10 -36 -17 -70 -7 -35 -15 -63 -18 -63 -3 0 -18
11 -32 25 -29 28 -84 41 -124 31 -41 -10 -85 -54 -97 -98 -15 -58 -4 -103 37
-143 32 -32 40 -35 94 -35 36 0 62 5 66 12 6 9 10 5 14 -12 3 -14 13 -26 22
-28 12 -2 19 13 31 65 70 308 69 305 56 314 -17 11 -27 11 -32 2z m-78 -149
c40 -51 22 -136 -32 -159 -83 -35 -156 41 -127 130 14 43 32 54 92 55 39 0 50
-4 67 -26z"/>
<path d="M2546 4818 c-3 -7 -7 -70 -10 -140 l-5 -128 25 0 c21 0 24 4 24 38 0
133 29 192 93 192 19 0 45 -9 58 -19 23 -18 24 -25 21 -120 -3 -94 -2 -101 16
-101 12 0 22 9 26 23 9 35 7 173 -4 201 -19 50 -110 72 -169 41 -27 -13 -29
-13 -34 5 -6 22 -35 27 -41 8z"/>
<path d="M2287 4810 c-41 -12 -58 -29 -79 -78 -20 -44 -19 -67 4 -124 26 -67
143 -92 216 -48 28 17 31 23 22 40 l-11 21 -26 -21 c-41 -32 -107 -28 -144 10
-17 16 -28 34 -24 40 3 5 28 10 54 10 26 0 76 3 110 6 69 8 72 13 42 80 -14
31 -28 45 -60 57 -45 19 -62 20 -104 7z m102 -56 c37 -30 40 -54 9 -54 -13 0
-53 -3 -90 -7 -60 -5 -68 -4 -68 11 0 10 13 31 29 47 37 37 79 38 120 3z"/>
<path d="M1656 4777 c-16 -12 -15 -18 12 -102 79 -241 93 -273 113 -268 21 6
24 20 9 57 -7 20 -5 33 11 60 l20 35 74 -45 c63 -40 76 -44 95 -34 20 11 19
13 -36 52 -32 22 -69 45 -81 51 -30 13 -29 22 8 91 17 31 29 59 27 61 -2 2
-14 2 -26 -2 -15 -3 -31 -24 -47 -57 -41 -85 -73 -133 -78 -116 -14 42 -80
230 -81 230 -1 0 -10 -6 -20 -13z"/>
<path d="M2068 4661 c-70 -14 -74 -17 -60 -39 7 -10 19 -10 63 -1 61 14 72 21
67 41 -2 11 -14 11 -70 -1z"/>
<path d="M3638 4460 c-54 -82 -98 -153 -98 -159 0 -5 18 -20 39 -33 22 -13 60
-36 85 -51 138 -86 296 -7 296 149 0 80 -51 139 -190 221 l-35 21 -97 -148z
m178 45 c85 -56 112 -107 94 -174 -13 -48 -66 -97 -115 -107 -29 -5 -48 0
-101 27 -103 53 -103 47 -18 177 41 61 77 112 81 112 3 0 30 -16 59 -35z"/>
<path d="M1486 4577 c-43 -24 -76 -76 -76 -120 0 -52 37 -107 87 -129 47 -21
71 -19 131 9 30 14 62 57 62 83 0 20 -37 10 -47 -13 -14 -30 -76 -60 -106 -51
-32 9 -58 35 -74 72 -11 27 -11 37 1 66 18 42 67 70 108 62 21 -4 30 -1 35 10
14 38 -62 45 -121 11z"/>
<path d="M3314 4436 c-10 -26 4 -48 28 -44 17 2 23 10 23 28 0 18 -6 26 -23
28 -13 2 -25 -3 -28 -12z"/>
<path d="M1187 4405 c-43 -30 -74 -82 -58 -98 8 -8 22 1 49 30 48 53 86 64
115 33 l22 -22 -29 -21 c-94 -70 -114 -111 -76 -160 42 -53 143 -23 171 51 7
19 13 22 21 14 8 -8 17 -8 30 -1 17 9 14 16 -34 86 -29 41 -64 84 -77 94 -34
27 -89 24 -134 -6z m173 -139 c-1 -35 -15 -57 -47 -74 -33 -18 -61 -14 -73 8
-14 27 -3 45 51 86 50 37 69 32 69 -20z"/>
<path d="M873 4261 c-26 -21 -67 -58 -90 -82 l-42 -44 124 -127 c68 -71 126
-128 130 -128 12 0 117 99 153 142 43 54 43 98 2 140 -25 25 -37 29 -65 26
-33 -4 -35 -2 -35 25 0 18 -10 39 -29 58 -43 42 -86 40 -148 -10z m98 -12 c52
-27 40 -75 -35 -149 l-46 -44 -40 39 c-22 21 -40 44 -40 50 0 17 110 108 138
114 2 1 12 -4 23 -10z m148 -126 c14 -16 19 -34 15 -47 -6 -22 -116 -136 -131
-136 -5 0 -25 20 -46 44 l-37 44 36 36 c91 91 128 105 163 59z"/>
<path d="M3979 4220 c-37 -20 -79 -86 -79 -125 0 -34 42 -107 74 -126 37 -23
96 -26 96 -5 0 8 -12 17 -27 21 -68 17 -118 89 -93 135 6 11 13 20 16 20 4 0
43 -34 89 -75 l83 -76 21 34 c21 34 27 89 15 134 -8 31 -90 83 -128 83 -17 -1
-47 -10 -67 -20z m139 -57 c23 -25 29 -76 13 -103 -8 -11 -23 -1 -76 50 l-66
65 28 12 c37 15 73 7 101 -24z"/>
<path d="M4196 3943 c-66 -132 -68 -136 -50 -154 18 -18 21 -18 94 3 217 60
212 58 199 74 -16 20 -33 18 -145 -15 -54 -16 -100 -28 -103 -26 -2 2 20 49
48 104 56 109 56 110 39 133 -11 14 -23 -3 -82 -119z"/>
<path d="M613 3811 c-44 -27 -68 -67 -68 -112 0 -23 -4 -35 -10 -31 -5 3 -34
21 -63 40 -51 32 -54 33 -67 15 -15 -20 -33 -6 175 -142 98 -65 138 -86 148
-79 17 14 15 28 -5 44 -17 12 -16 13 4 14 62 1 114 97 92 171 -25 82 -135 125
-206 80z m107 -36 c64 -33 79 -101 34 -154 -21 -25 -33 -31 -66 -31 -32 0 -47
7 -74 34 -40 40 -44 80 -13 120 36 45 73 55 119 31z"/>
<path d="M4370 3752 c-76 -38 -101 -127 -58 -204 31 -55 89 -85 102 -53 4 10
-3 20 -19 27 -33 15 -65 67 -65 104 0 16 9 40 19 53 l18 24 35 -59 c57 -98 82
-134 94 -134 5 0 23 14 40 31 25 26 29 38 29 89 0 48 -4 63 -25 85 -52 56
-108 68 -170 37z m105 -34 c51 -23 70 -97 37 -138 l-17 -22 -49 77 c-39 62
-46 79 -35 86 19 12 33 11 64 -3z"/>
<path d="M4674 3516 c-34 -18 -107 -53 -163 -79 -96 -45 -122 -69 -88 -83 7
-2 80 28 162 67 83 39 160 75 173 80 19 7 21 12 12 29 -14 25 -21 24 -96 -14z"/>
<path d="M440 3498 c-96 -64 -89 -192 13 -239 52 -23 79 -24 124 -3 52 25 83
78 83 142 0 45 -3 53 -16 48 -9 -3 -18 -6 -20 -6 -2 0 -4 -16 -4 -36 0 -48
-33 -100 -71 -113 -61 -21 -63 -4 -12 102 52 109 51 116 -19 124 -34 4 -50 0
-78 -19z m90 -29 c0 -21 -69 -159 -80 -159 -6 0 -18 16 -26 36 -19 46 -4 98
34 119 32 17 72 19 72 4z"/>
<path d="M4575 3336 c-17 -7 -44 -28 -59 -47 -25 -30 -28 -39 -24 -92 4 -55 8
-63 47 -100 41 -37 45 -39 96 -35 137 11 185 160 83 255 -31 29 -102 38 -143
19z m120 -59 c18 -15 28 -36 32 -64 5 -37 2 -45 -25 -73 -25 -24 -39 -30 -74
-30 -50 0 -81 25 -93 73 -22 86 92 153 160 94z"/>
<path d="M200 3247 c0 -16 9 -28 28 -38 15 -7 53 -30 85 -51 32 -21 60 -38 62
-38 3 0 25 -13 50 -29 55 -35 57 -34 -137 -52 -100 -9 -138 -16 -139 -26 -1
-7 -2 -18 -3 -25 -1 -6 11 -18 25 -27 15 -9 53 -31 85 -50 33 -19 81 -49 108
-67 l49 -33 -34 -5 c-19 -3 -88 -10 -153 -16 -65 -6 -123 -13 -128 -16 -4 -3
-8 -14 -8 -25 0 -13 7 -19 23 -19 49 0 324 32 345 40 31 13 29 51 -6 71 -177
106 -232 140 -232 143 0 2 69 11 154 21 151 17 155 18 161 43 7 27 5 29 -65
68 -25 13 -92 54 -150 89 -58 36 -108 65 -112 65 -5 0 -8 -10 -8 -23z"/>
<path d="M4638 2992 c-148 -30 -178 -39 -178 -54 0 -26 10 -28 78 -13 58 12
63 11 56 -4 -3 -9 -9 -36 -11 -61 -4 -36 0 -52 19 -80 33 -48 63 -61 131 -57
46 3 63 9 87 32 41 39 54 83 40 134 -6 22 -22 49 -35 59 -30 24 -31 32 -5 32
11 0 20 4 20 9 0 16 -12 41 -19 40 -3 -1 -86 -17 -183 -37z m126 -42 c29 -11
56 -57 56 -98 0 -44 -50 -87 -101 -87 -34 0 -46 6 -70 33 -72 81 11 192 115
152z"/>
<path d="M4510 2625 c0 -24 2 -25 70 -25 39 0 70 -2 70 -5 0 -3 -7 -17 -16
-30 -22 -34 -20 -99 6 -139 66 -108 233 -73 255 53 6 35 -2 64 -33 124 -2 4 3
7 12 7 9 0 16 8 16 20 0 19 -7 20 -190 20 l-190 0 0 -25z m313 -45 c56 -45 40
-138 -28 -160 -61 -20 -122 8 -139 66 -9 28 9 75 37 96 31 25 98 23 130 -2z"/>
<path d="M180 2476 c0 -13 9 -35 21 -50 l20 -26 -20 0 c-16 0 -21 -6 -21 -25
0 -29 1 -29 173 -18 104 6 107 7 107 30 0 23 -2 23 -95 23 -88 0 -98 2 -120
25 -14 13 -25 33 -25 45 0 13 -7 20 -20 20 -14 0 -20 -7 -20 -24z"/>
<path d="M4670 2307 c-60 -30 -93 -127 -66 -192 24 -58 42 -40 38 38 -4 60 -2
68 22 91 14 15 35 26 47 26 19 0 21 -4 16 -42 -4 -24 -9 -73 -13 -110 -7 -79
-1 -86 64 -68 109 29 137 182 44 245 -41 28 -109 34 -152 12z m125 -43 c21 -8
45 -56 45 -89 0 -16 -12 -38 -29 -56 -33 -33 -76 -40 -67 -11 2 9 7 42 11 72
7 57 14 90 20 90 2 0 11 -3 20 -6z"/>
<path d="M315 2260 c-66 -10 -121 -19 -122 -19 -2 -1 -3 -10 -3 -21 0 -17 6
-20 38 -19 20 0 59 4 87 8 85 14 125 -12 125 -81 0 -58 -20 -71 -138 -88 -76
-11 -82 -14 -82 -36 0 -13 3 -24 8 -24 36 0 192 35 213 47 62 37 65 128 8 182
-13 12 -19 21 -13 21 5 0 15 4 22 8 15 10 5 43 -12 41 -6 -1 -65 -10 -131 -19z"/>
<path d="M4578 1970 c-35 -27 -53 -90 -39 -132 14 -40 14 -40 -8 -33 -12 4
-21 0 -25 -11 -9 -23 -2 -28 74 -48 36 -10 92 -26 125 -36 43 -12 62 -14 67
-6 16 24 6 34 -54 51 -140 41 -171 75 -137 149 21 46 56 51 154 21 72 -22 89
-25 96 -13 18 27 7 36 -58 53 -114 29 -164 30 -195 5z"/>
<path d="M466 1934 c-4 -11 3 -27 20 -45 37 -39 38 -110 1 -147 -20 -20 -27
-22 -31 -11 -3 8 -17 55 -32 104 -14 50 -30 94 -34 98 -11 12 -64 -18 -89 -49
-15 -20 -21 -41 -21 -80 0 -45 5 -59 31 -88 57 -66 144 -66 208 -1 33 33 36
40 36 95 -1 51 -5 64 -31 96 -36 45 -49 51 -58 28z m-63 -136 c14 -42 23 -79
19 -82 -28 -29 -102 34 -102 87 0 36 37 95 50 80 4 -4 19 -43 33 -85z"/>
<path d="M4464 1678 c-7 -24 -14 -19 78 -62 85 -40 102 -60 96 -113 -3 -26 0
-37 14 -44 14 -8 19 -5 24 16 3 14 4 40 0 56 -5 26 -3 30 11 25 9 -4 20 -1 25
6 17 27 25 22 -164 103 -74 32 -78 32 -84 13z"/>
<path d="M474 1636 c-48 -21 -79 -72 -78 -128 1 -53 22 -91 65 -117 26 -16 29
-20 15 -28 -16 -9 -13 -43 4 -43 4 0 58 25 119 55 61 30 114 55 117 55 2 0 27
13 54 28 44 25 48 31 37 46 -12 16 -16 15 -70 -9 -70 -30 -68 -30 -66 -2 5 59
-2 81 -40 118 -33 34 -45 39 -82 39 -24 -1 -58 -7 -75 -14z m126 -56 c54 -38
47 -125 -11 -155 -57 -30 -123 -13 -144 38 -19 46 -7 87 35 115 41 27 83 28
120 2z"/>
<path d="M4298 1345 c-62 -42 -93 -172 -38 -158 15 4 18 11 14 29 -12 47 51
114 108 114 27 0 98 -72 98 -99 0 -38 -30 -82 -66 -97 -37 -16 -46 -44 -14
-44 39 0 78 29 99 73 27 55 27 89 0 137 -39 70 -133 91 -201 45z"/>
<path d="M628 1309 c-48 -38 -64 -89 -49 -146 12 -45 60 -93 92 -93 23 0 24
-9 4 -24 -13 -9 -14 -14 -2 -29 12 -17 18 -15 87 35 104 73 118 83 178 125 53
37 61 50 40 71 -8 8 -20 4 -47 -17 -20 -15 -46 -33 -58 -40 -22 -11 -23 -10
-23 28 0 33 -7 48 -38 81 -36 37 -43 40 -93 40 -46 0 -60 -5 -91 -31z m132
-24 c64 -33 78 -95 33 -145 -20 -22 -40 -33 -70 -37 -37 -5 -45 -2 -73 25 -51
52 -36 127 34 158 40 17 41 17 76 -1z"/>
<path d="M4119 1115 c-29 -15 -59 -70 -59 -105 0 -19 -2 -21 -16 -10 -12 11
-18 10 -31 -3 -9 -9 -15 -18 -12 -20 2 -1 47 -42 100 -90 67 -60 102 -85 113
-81 27 10 19 25 -54 93 -80 76 -88 102 -42 150 47 51 75 46 155 -29 68 -64 78
-68 96 -46 10 11 -2 26 -59 78 -39 34 -79 66 -88 70 -28 11 -75 8 -103 -7z"/>
<path d="M880 1051 c-47 -25 -71 -61 -77 -112 -6 -58 20 -107 72 -136 67 -38
142 -23 185 36 50 72 28 166 -50 210 -46 26 -85 27 -130 2z m110 -38 c16 -9
37 -32 47 -50 17 -33 17 -35 -2 -71 -11 -20 -36 -46 -57 -57 -35 -18 -38 -19
-72 -3 -69 33 -82 110 -28 160 44 42 70 46 112 21z"/>
<path d="M3916 911 c-9 -10 -13 -21 -8 -22 5 -2 33 -33 61 -68 56 -71 63 -103
31 -144 -18 -23 -18 -26 -4 -38 14 -11 19 -10 35 10 11 13 19 34 19 47 0 27
15 32 24 8 6 -15 8 -15 26 1 19 17 18 19 -55 104 -106 124 -108 126 -129 102z"/>
<path d="M1104 784 c-43 -54 -98 -120 -121 -148 -35 -43 -40 -53 -28 -65 7 -7
18 -10 24 -7 6 4 54 60 108 124 54 64 100 119 103 122 26 25 32 41 20 55 -7 8
-16 15 -20 15 -4 0 -43 -43 -86 -96z"/>
<path d="M3760 785 c-6 -8 -8 -20 -4 -27 6 -10 135 -188 150 -207 5 -5 34 20
34 29 0 4 -18 32 -39 61 -22 30 -57 77 -78 106 -21 29 -41 52 -44 53 -4 0 -12
-7 -19 -15z"/>
<path d="M1273 773 c-27 -10 -12 -31 27 -38 49 -8 100 -62 100 -105 0 -16 -4
-31 -9 -34 -5 -3 -50 21 -100 54 -50 33 -93 60 -95 60 -13 0 -38 -92 -31 -117
19 -78 105 -128 179 -103 44 14 96 72 97 108 4 85 -17 123 -85 157 -50 25 -61
28 -83 18z m23 -164 c69 -47 74 -53 60 -68 -39 -38 -125 -10 -147 47 -8 21 -3
72 7 72 3 0 39 -23 80 -51z"/>
<path d="M3584 671 c-41 -19 -84 -63 -84 -86 0 -7 9 -15 20 -18 12 -3 20 0 20
7 0 19 52 64 83 71 35 9 89 -12 85 -34 -2 -8 -24 -27 -49 -41 -94 -51 -129
-74 -129 -82 0 -21 34 -57 62 -67 43 -15 79 -14 122 4 94 39 101 172 14 236
-48 34 -85 37 -144 10z m155 -163 c-6 -16 -21 -35 -33 -43 -29 -21 -89 -19
-110 4 -16 18 -14 20 61 64 75 43 78 44 86 24 4 -12 3 -33 -4 -49z"/>
<path d="M1534 547 c-38 -34 -89 -79 -113 -99 -40 -34 -41 -37 -23 -47 21 -11
21 -10 141 91 31 26 58 48 61 48 3 0 4 -54 2 -119 -3 -109 -2 -121 16 -130 18
-9 20 -5 26 66 3 42 6 111 6 153 0 71 -2 78 -23 87 -21 10 -31 4 -93 -50z"/>
<path d="M3294 531 c-18 -11 -38 -29 -47 -41 -12 -17 -15 -18 -20 -5 -7 17
-16 19 -37 5 -12 -7 -9 -22 19 -92 18 -46 41 -102 50 -125 16 -43 25 -50 49
-34 10 6 7 24 -17 85 -17 42 -31 88 -31 102 0 39 42 74 88 74 46 0 55 -10 98
-117 28 -71 37 -80 61 -65 18 11 -44 167 -80 204 -34 34 -86 38 -133 9z"/>
<path d="M3954 506 c-10 -26 4 -48 28 -44 17 2 23 10 23 28 0 18 -6 26 -23 28
-13 2 -25 -3 -28 -12z"/>
<path d="M1776 491 c-13 -21 5 -39 32 -32 57 16 123 -23 137 -81 9 -36 4 -36
-117 4 -53 18 -101 28 -105 24 -4 -4 -8 -30 -7 -58 0 -46 4 -54 42 -89 36 -34
48 -39 88 -39 85 0 144 58 144 142 0 47 -31 98 -71 120 -35 19 -133 25 -143 9z
m147 -171 c13 0 7 -20 -13 -40 -27 -27 -89 -27 -122 0 -24 18 -42 66 -32 82 2
3 39 -4 82 -18 42 -13 80 -24 85 -24z"/>
<path d="M3093 458 c-6 -7 -20 -37 -33 -65 -13 -29 -25 -53 -28 -53 -2 0 -24
18 -49 40 -33 29 -55 40 -77 40 l-31 -1 41 -37 c23 -20 53 -45 68 -55 33 -23
33 -35 -4 -109 -16 -33 -30 -62 -30 -64 0 -2 10 -4 23 -4 17 1 28 14 50 62
l27 61 28 -25 c45 -42 72 -56 94 -50 19 5 14 12 -42 62 l-62 56 35 77 c32 68
34 77 18 77 -10 0 -23 -6 -28 -12z"/>
<path d="M2110 389 c-99 -57 -120 -194 -44 -279 42 -46 96 -66 205 -75 l76 -7
12 93 c7 52 18 133 25 180 l12 87 -68 11 c-104 17 -177 14 -218 -10z m173 -28
c26 -4 50 -11 53 -14 3 -3 -1 -48 -10 -100 -9 -52 -16 -107 -16 -123 0 -50 -8
-54 -80 -40 -118 22 -160 61 -160 146 0 55 23 96 68 119 40 22 71 24 145 12z"/>
<path d="M2670 385 c-26 -31 18 -71 47 -43 12 12 13 20 4 37 -14 25 -34 27
-51 6z"/>
</g>
</svg>
